{"title":"Kill.the.Irishman.2011.DvDRip.x264.Feel-Free","uid":6339382,"size":973271974,"categoryP":"video","categoryS":"movies","magnet":"?xt=urn:btih:38ef1e0a77bef14aa6b2c93bd0b7cca9c4d9549f&amp;dn=Kill.the.Irishman.2011.DvDRip.x264.Feel-Free&amp;tr=udp%3A%2F%2Ftracker.openbittorrent.com%3A80&amp;tr=udp%3A%2F%2Fopen.demonii.com%3A1337&amp;tr=udp%3A%2F%2Ftracker.coppersurfer.tk%3A6969&amp;tr=udp%3A%2F%2Fexodus.desync.com%3A6969","seeders":0,"leechers":1,"uploader":".BONE.","files":9,"time":1303590484,"description":"Genre:Action | Crime\nLanguage:English\n &lt;a href=&quot;\nhttp://www.imdb.com/title/tt1416801/&quot; rel=&quot;nofollow&quot; target=&quot;_NEW&quot;&gt;\nhttp://www.imdb.com/title/tt1416801/&lt;/a&gt;\n\nSource:DVD\n\n\nFormat : MPEG-4\nFormat profile : Base Media\nCodec ID : isom\nFile size : 926 MiB\nDuration : 1h 42mn\nOverall bit rate : 1 266 Kbps\n\n\nVideo\nFormat profile : &lt;a class=&quot;__cf_email__&quot; href=&quot;/cdn-cgi/l/email-protection&quot; data-cfemail=&quot;bcf4d5dbd4fcf088928d&quot;&gt;[email&amp;#160;protected]&lt;/a&gt;&lt;script cf-hash='f9e31' type=&quot;text/javascript&quot;&gt;\n/* &lt;![CDATA[ */!function(){try{var t=&quot;currentScript&quot;in document?document.currentScript:function(){for(var t=document.getElementsByTagName(&quot;script&quot;),e=t.length;e--;)if(t[e].getAttribute(&quot;cf-hash&quot;))return t[e]}();if(t&amp;&amp;t.previousSibling){var e,r,n,i,c=t.previousSibling,a=c.getAttribute(&quot;data-cfemail&quot;);if(a){for(e=&quot;&quot;,r=parseInt(a.substr(0,2),16),n=2;a.length-n;n+=2)i=parseInt(a.substr(n,2),16)^r,e+=String.fromCharCode(i);e=document.createTextNode(e),c.parentNode.replaceChild(e,c)}}}catch(u){}}();/* ]]&gt; */&lt;/script&gt;\nFormat settings, CABAC : Yes\nFormat settings, ReFrames : 3 frames\nCodec ID : avc1\nCodec ID/Info : Advanced Video Coding\nDuration : 1h 42mn\nBit rate mode : Variable\nBit rate : 828 Kbps\nMaximum bit rate : 4 096 Kbps\nWidth : 720 pixels\nHeight : 392 pixels\nDisplay aspect ratio : 16:9\nFrame rate mode : Constant\nFrame rate : 25.000 fps\nColor space : YUV\nChroma subsampling : 4:2:0\nBit depth : 8 bits\nScan type : Progressive\nBits/(Pixel*Frame) : 0.117\nStream size : 600 MiB (65%)\nWriting library : x264\n\n\nAudio\nID : 2\nFormat : AAC\nFormat/Info : Advanced Audio Codec\nFormat version : Version 4\nFormat profile : LC\nFormat settings, SBR : No\nCodec ID : 40\nDuration : 1h 42mn\nBit rate mode : Variable\nBit rate : 442 Kbps\nMaximum bit rate : 547 Kbps\nChannel(s) : 6 channels\nChannel positions : Front: L C R, Side: L R, LFE\nSampling rate : 48.0 KHz\nStream size : 323 MiB (35%)\n\n\nPlot:\nThe true story of Danny Greene, a tough Irish thug working for mobsters in Cleveland during the 1970's.","torrent":{"xt":"urn:btih:38ef1e0a77bef14aa6b2c93bd0b7cca9c4d9549f","amp;dn":"Kill.the.Irishman.2011.DvDRip.x264.Feel-Free","amp;tr":["udp%3A%2F%2Ftracker.openbittorrent.com%3A80","udp%3A%2F%2Fopen.demonii.com%3A1337","udp%3A%2F%2Ftracker.coppersurfer.tk%3A6969","udp%3A%2F%2Fexodus.desync.com%3A6969"],"infoHash":"38ef1e0a77bef14aa6b2c93bd0b7cca9c4d9549f","infoHashBuffer":{"type":"Buffer","data":[56,239,30,10,119,190,241,74,166,178,201,59,208,183,204,169,196,217,84,159]},"announce":[],"urlList":[]}}